<?xml version="1.0" encoding="UTF-8"?>
<svg xmlns="http://www.w3.org/2000/svg" xmlns:xlink="http://www.w3.org/1999/xlink" version="1.1" viewBox="0 0 577.31 332.88">
  <!-- Generator: Adobe Illustrator 29.5.1, SVG Export Plug-In . SVG Version: 2.1.0 Build 141)  -->
  <defs>
    <style>
      .st0 {
        fill: #f4cf8c;
      }

      .st1 {
        fill: url(#linear-gradient1);
      }

      .st2 {
        fill: url(#linear-gradient);
      }

      .st3 {
        isolation: isolate;
      }

      .st4 {
        fill: #fff;
      }

      .st5 {
        mix-blend-mode: soft-light;
      }
    </style>
    <linearGradient id="linear-gradient" x1="189.86" y1="-36.64" x2="379.04" y2="305.86" gradientUnits="userSpaceOnUse">
      <stop offset=".07" stop-color="#fbd462"/>
      <stop offset=".29" stop-color="#fff"/>
      <stop offset=".51" stop-color="#fbd462"/>
      <stop offset=".77" stop-color="#d48800"/>
      <stop offset="1" stop-color="#fff"/>
    </linearGradient>
    <linearGradient id="linear-gradient1" x1="310.44" y1="-27.03" x2="184.58" y2="367.34" xlink:href="#linear-gradient"/>
  </defs>
  <g class="st3">
    <g id="Layer_1">
      <g>
        <g>
          <path class="st2" d="M63.37,332.88v-11.09l3.34-.56c32.72-5.54,45.62-9.7,61.9-34.62,2.2-3.23,6.1-8.9,11.27-16.38,5.88-8.53,13.39-19.42,21.8-31.67-23.55-36.63-50.55-79.21-57.66-91.39-8.56-14.48-11.19-15.98-28.16-15.98h-11.09v64.26c0,25.92,1.84,27.98,28.16,31.6l3.46.48v9.58H0v-9.53l3.4-.52c26.56-4.08,27.86-5.56,27.86-31.61V40.94c0-25.71-1.04-26.87-27.85-30.89l-3.41-.51V0h89.87c25.65,0,45.52,2.01,59.11,11.83,14.72,9.81,23.58,27.58,23.58,47.44,0,27.06-15.71,49.39-44.36,63.25,7.9,13.77,22.33,37.41,31.83,51.65,3.6,5.5,12.04,18.36,22.39,34.02,30.86-45.38,53.16-79.32,66.36-100.96-7.92-22.19-15.73-44.02-23.27-64.92-9.74-27.12-14.05-28.66-35.34-32.26l-3.34-.56V0h92.08v9.39l-3.24.63c-8.98,1.74-18.43,3.99-20.48,7.44-.99,1.67-.72,4.57.9,9.7,7.9,24.34,43.8,121.44,57.68,158.5,15.5-40.14,40.46-107.91,55.09-148.94,3.53-9.78,5.09-15.64,3.28-18.66-2.55-4.26-14-6.43-24.87-8l-3.43-.5V0h149.35c21.54,0,43.66,1.61,59.5,13.29,16.15,12.75,24.62,31.1,24.62,53.16,0,29.26-14.21,47-26.13,56.72-14.34,11.7-33.39,18.42-52.25,18.42-4.63,0-8.71-.89-11.39-1.56l-19.1-4.56v61.03c0,25.27,1.06,26.41,28.21,30.53l3.4.52v9.53h-96.39v-9.58l3.46-.48c26.5-3.64,27.8-5.12,27.8-31.6V41.66c0-25.32-1.03-27.34-18.15-30.25-15.62,3.54-19.04,8.98-30.4,36.11-10.74,26.68-48.91,123.3-76.49,194.63l-6.92,17.71-16.48-46.46c-9.56-26.97-19.4-54.71-29.17-82.18-14.8,24.4-39.67,61.66-62.52,95.67,41.92,63.13,51.91,76.63,54.11,79.03,8.17,8.83,13.26,11.42,27.2,13.86l4.24.74-2.88,11.52h-3.13c-7.9,0-12.37-.12-14.4-.38-31.16-1.87-39.34-5.83-54.57-26.4-3.93-5.47-15.25-22.64-31.33-47.5-10.71,15.98-21.38,32.04-23.8,36.6-1.45,2.61-2.77,4.91-3.97,7.01-3.65,6.35-7.09,12.36-6.31,14.11,1.14,2.53,12.92,4.97,16.79,5.78l3.19.66v10.97H63.37ZM468.45,120.74c5.08,1.48,13.24,2.42,21.5,2.42,44.03,0,50.61-35.31,50.61-56.35,0-34.22-18.97-53.84-52.04-53.84-9.69,0-15.82,1.82-16.95,2.8l-.17.16c-2.01,1.76-2.94,7.65-2.94,18.54v86.27ZM82.69,115.98c17.49,0,26.72-.71,35.76-7.16,12.34-8.64,17.37-21.12,17.37-43.09,0-34.02-17.08-52.76-48.09-52.76-14.72,0-19.25,1.84-20.51,2.63-1.38.92-2.43,2.47-2.43,13.49v86.89h17.91Z"/>
          <path class="st1" d="M550.32,16.51c-13.65-10.06-32.7-12.51-57.13-12.51h-145.35v2.09c32.34,4.67,32.7,10.06,24.79,31.98-16.53,46.35-44.55,122.16-58.92,158.8-8.98-23.71-52.45-140.84-61.44-168.5-4.31-13.65-1.44-17.6,22.63-22.28v-2.09h-84.07v2.09c23.35,3.95,28.38,6.83,38.44,34.85,7.74,21.47,15.78,43.91,23.92,66.73-16.49,27.22-45.24,70.15-70.82,107.7-11.84-17.89-21.72-32.94-25.67-38.98-10.78-16.17-27.3-43.47-34.13-55.69,26.23-11.5,45.99-31.98,45.99-61.44,0-19.4-8.98-35.57-21.92-44.19-12.93-9.34-32.34-11.07-56.77-11.07H4v2.09c28.74,4.31,31.26,7.19,31.26,34.85v154.49c0,28.38-3.23,31.26-31.26,35.57v2.09h88.38v-2.09c-28.74-3.95-31.62-7.9-31.62-35.57v-68.26h15.09c18.32,0,22.28,2.16,31.62,17.96,7.06,12.1,34.34,55.14,59.01,93.48-16.49,24.04-29.77,43.19-34.52,50.17-16.87,25.84-30.31,30.58-64.59,36.38v3.7h88.58v-3.7c-27.95-5.8-22.42-8.96-9.24-32.69,2.59-4.89,13.33-21.05,27.4-42.01,16.13,24.99,29.98,46.13,34.48,52.4,14.37,19.4,21.56,22.99,51.74,24.79,2.51.36,11.14.36,14.01.36l1.08-4.31c-14.37-2.51-20.48-5.39-29.46-15.09-5.03-5.47-32.5-46.38-55.98-81.76,24.97-37.15,54.02-80.61,68.26-105.02,15.17,42.59,30.54,86.04,44.91,126.54l3-7.68c26.95-69.7,65.39-167.06,76.53-194.73,11.64-27.82,15.73-34.67,33.99-38.64,20.53,3.42,22.26,7.72,22.26,34.33v153.77c0,28.38-2.51,31.62-31.26,35.57v2.09h88.38v-2.09c-28.38-4.31-31.62-6.47-31.62-34.49v-66.11l24.07,5.75c2.87.72,6.47,1.44,10.42,1.44,33.41,0,74.37-22.99,74.37-71.14,0-22.99-9.34-39.16-22.99-49.94ZM82.69,119.98h-21.92V29.08c0-11.5,1.08-14.73,4.31-16.89,2.87-1.8,9.34-3.23,22.63-3.23,30.54,0,52.1,17.6,52.1,56.77,0,21.56-4.67,36.29-19.04,46.35-10.06,7.19-20.12,7.9-38.08,7.9ZM489.96,127.17c-10.42,0-20.48-1.44-25.51-3.59V34.47c0-13.65,1.44-19.04,4.31-21.56,2.16-2.16,10.06-3.95,19.76-3.95,31.98,0,56.05,17.96,56.05,57.84,0,48.86-30.18,60.36-54.61,60.36Z"/>
          <g class="st5">
            <path class="st4" d="M171.9,248.24c-14.07,20.96-24.81,37.13-27.4,42.01-9.08,16.35-14.53,22.94-7.89,27.35-2.63-4.45,2.43-11.29,10.12-25.12,2.56-4.84,13.13-20.75,27-41.41-.61-.94-1.21-1.87-1.82-2.82Z"/>
            <path class="st4" d="M73.63,124.94h-15.09v68.26c0,15.63.92,23.68,6.9,28.45-3.98-4.97-4.67-12.8-4.67-26.23v-68.26h15.09c11.3,0,17.13.83,22.13,5.17-5.59-6.28-11.36-7.39-24.36-7.39Z"/>
            <path class="st4" d="M85.49,6.74c-13.29,0-19.76,1.44-22.63,3.23-3.23,2.16-4.31,5.39-4.31,16.89v90.9h2.22V29.08c0-11.5,1.08-14.73,4.31-16.89,2.87-1.8,9.34-3.23,22.63-3.23,14.55,0,27.06,4.01,36.17,12.43-9.25-9.94-22.62-14.66-38.39-14.66Z"/>
            <path class="st4" d="M256.02,119.62c-14.24,24.41-43.29,67.87-68.26,105.02,23.48,35.38,50.95,76.29,55.98,81.76,1.18,1.28,2.31,2.43,3.42,3.48-.39-.41-.79-.82-1.19-1.26-5.03-5.47-32.5-46.38-55.98-81.76,24.48-36.42,52.84-78.86,67.36-103.51-.44-1.24-.89-2.49-1.33-3.74Z"/>
            <path class="st4" d="M347.84,4.2v1.89c13.03,1.88,20.86,3.88,25.06,7.03-3.12-4.28-10.67-6.73-25.06-8.93Z"/>
            <path class="st4" d="M274.91,6.09v-2.09h-2.91c-23.41,4.61-26.22,8.62-21.95,22.14,8.98,27.66,52.45,144.79,61.44,168.5.23-.58.47-1.2.71-1.8-11.54-30.69-51.36-138.13-59.92-164.47-4.31-13.65-1.44-17.6,22.63-22.28Z"/>
            <path class="st4" d="M464.45,34.47c0-13.65,1.44-19.04,4.31-21.56,2.16-2.16,10.06-3.95,19.76-3.95,15.87,0,29.78,4.43,39.78,13.76-10.11-10.85-24.93-15.98-42-15.98-9.7,0-17.61,1.8-19.76,3.95-2.87,2.51-4.31,7.9-4.31,21.56v89.1c.66.28,1.41.55,2.22.8V34.47Z"/>
            <path class="st4" d="M4,4.21v1.88c12.61,1.89,20.17,3.51,24.69,7.06-3.88-4.91-11.15-6.84-24.69-8.95Z"/>
            <path class="st4" d="M272.13,325.8c-2.87,0-11.5,0-14.01-.36-22.12-1.32-31.89-3.61-41.18-12.37,10.04,10.62,19.52,13.17,43.41,14.59,2.51.36,11.14.36,14.01.36l1.08-4.31c-.92-.16-1.8-.32-2.66-.49l-.64,2.58Z"/>
            <path class="st4" d="M432.56,12.55c-3.14-4.08-8.61-5.86-18.11-7.44-18.26,3.97-22.34,10.82-33.99,38.64-11.14,27.67-49.58,125.03-76.53,194.73l-2.25,5.76c.49,1.38.99,2.78,1.47,4.15l3-7.68c26.95-69.7,65.39-167.06,76.53-194.73,11.64-27.82,15.73-34.67,33.99-38.64,7.56,1.26,12.57,2.65,15.89,5.22Z"/>
            <path class="st4" d="M493.84,230.86h-85.18c-.33.05-.64.09-.98.14v2.09h88.38v-2.09c-.76-.12-1.5-.23-2.22-.34v.2Z"/>
            <path class="st4" d="M190.83,4.25v1.84c11.71,1.98,18.81,3.69,24.25,8.44-5.41-6.11-12.27-8.17-24.25-10.28Z"/>
            <path class="st4" d="M554.66,20.29c9.98,10.5,16.42,24.86,16.42,43.93,0,48.14-40.96,71.14-74.37,71.14-3.95,0-7.54-.72-10.42-1.44l-24.07-5.75v66.11c0,15.39.99,22.97,6.56,27.39-3.63-4.66-4.34-12.1-4.34-25.17v-66.11l24.07,5.75c2.87.72,6.47,1.44,10.42,1.44,33.41,0,74.37-22.99,74.37-71.14,0-20.46-7.4-35.5-18.65-46.16Z"/>
            <path class="st4" d="M166.33,57.04c0,29.46-19.76,49.94-45.99,61.44,6.83,12.22,23.35,39.52,34.13,55.69,3.95,6.05,13.84,21.09,25.67,38.98.13-.19.26-.38.38-.56-11.01-16.65-20.08-30.47-23.83-36.2-10.78-16.17-27.3-43.47-34.13-55.69,26.23-11.5,45.99-31.98,45.99-61.44,0-16.43-6.45-30.51-16.27-39.69,8.56,9.15,14.05,22.31,14.05,37.46Z"/>
            <path class="st4" d="M92.39,231c-.76-.1-1.5-.21-2.22-.32v.18H4.88c-.3.05-.58.09-.88.14v2.09h88.38v-2.09Z"/>
            <path class="st4" d="M153.73,326.65h-86.36v2.22h88.58v-3.7c-.77-.16-1.51-.32-2.22-.47v1.95Z"/>
          </g>
        </g>
        <g>
          <path class="st0" d="M510.79,238.23h-2.01v-9.5h-3.6v-1.85h9.21v1.85h-3.6v9.5Z"/>
          <path class="st0" d="M522.09,235.44h-.06l-3.55-5.32v8.11h-1.98v-11.35h2.13l3.45,5.37,3.45-5.37h2.13v11.35h-1.98v-8.14l-3.58,5.35Z"/>
        </g>
      </g>
    </g>
  </g>
</svg>